<svg xmlns="http://www.w3.org/2000/svg" viewBox="0 0 24 24" fill="currentColor" aria-hidden="true"><path d="M3 9.00162H5V15.0016H3C2.73478 15.0016 2.48043 14.8963 2.29289 14.7087C2.10536 14.5212 2 14.2668 2 14.0016V10.0016C2 9.7364 2.10536 9.48205 2.29289 9.29451C2.48043 9.10697 2.73478 9.00162 3 9.00162Z"/><path d="M6.49992 15.0016L11.3599 18.7716C11.5061 18.8933 11.6839 18.9709 11.8725 18.9951C12.0611 19.0193 12.2528 18.9893 12.4249 18.9084C12.5971 18.8276 12.7426 18.6994 12.8445 18.5388C12.9463 18.3781 13.0002 18.1918 12.9999 18.0016V6.00163C13.0002 5.81144 12.9463 5.62511 12.8445 5.4645C12.7426 5.30388 12.5971 5.17564 12.4249 5.09481C12.2528 5.01398 12.0611 4.98392 11.8725 5.00815C11.6839 5.03239 11.5061 5.10991 11.3599 5.23163L6.49992 9.00163V15.0016Z"/><path d="M22.0001 10.41L20.5901 9.00002L18.4601 11.12L16.3401 9.00002L14.9301 10.41L17.0501 12.54L14.9301 14.66L16.3401 16.07L18.4601 13.95L20.5901 16.07L22.0001 14.66L19.8801 12.54L22.0001 10.41Z"/></svg>
